<svg width="32" height="32" viewBox="0 0 32 32" fill="none" xmlns="http://www.w3.org/2000/svg">
<rect width="32" height="32" rx="16" fill="#27679A"/>
<path fill-rule="evenodd" clip-rule="evenodd" d="M18.7701 8.06451C19.2358 7.98476 19.7573 7.95818 20.2487 8.04159C21.1239 8.18942 21.9348 8.59584 22.577 9.20851C22.995 9.21767 23.4066 9.13517 23.7705 9.01784C24.1221 8.90285 24.4597 8.7488 24.777 8.55859L24.7852 8.55309C24.9173 8.46514 25.0756 8.42554 25.2335 8.441C25.3913 8.45646 25.539 8.52604 25.6514 8.63792C25.7638 8.74981 25.8341 8.89714 25.8503 9.05492C25.8666 9.21271 25.8277 9.37125 25.7404 9.50368C25.5507 9.79243 25.2857 10.3076 24.9897 10.8851L24.8476 11.161C24.678 11.491 24.5038 11.8247 24.3416 12.1107C24.2398 12.2903 24.1308 12.4728 24.0208 12.6304V12.8816C24.032 14.3837 23.744 15.873 23.1735 17.2625C22.603 18.6521 21.7615 19.9142 20.698 20.975C19.6345 22.0358 18.3704 22.8742 16.9794 23.4413C15.5884 24.0083 14.0984 24.2926 12.5963 24.2776C10.4195 24.2806 8.28835 23.6534 6.46017 22.4718C6.32893 22.3874 6.23026 22.261 6.18038 22.1132C6.1305 21.9654 6.13237 21.805 6.18568 21.6584C6.23899 21.5118 6.34057 21.3877 6.47374 21.3064C6.60691 21.2252 6.76375 21.1917 6.9185 21.2113C7.1935 21.245 7.47003 21.2618 7.74808 21.2618C8.73866 21.2581 9.71676 21.0405 10.6154 20.6238C10.0525 20.3677 9.54905 19.9972 9.13714 19.5359C8.72524 19.0746 8.41389 18.5326 8.22292 17.9443C8.18653 17.8318 8.17981 17.7117 8.20342 17.5957C8.22702 17.4798 8.28015 17.3719 8.35767 17.2825L8.36683 17.2733C7.90172 16.8588 7.52893 16.3512 7.27264 15.7833C7.01634 15.2154 6.88225 14.6 6.87908 13.977V13.9284C6.87902 13.7775 6.92861 13.6307 7.02023 13.5108C7.11184 13.3909 7.24037 13.3044 7.386 13.2648C7.07573 12.6457 6.91469 11.9626 6.91575 11.2701C6.91523 10.4847 7.12067 9.71283 7.51158 9.03159C7.56712 8.93489 7.64535 8.85314 7.73952 8.79341C7.8337 8.73368 7.94099 8.69775 8.05214 8.68873C8.16329 8.67971 8.27497 8.69786 8.37755 8.74162C8.48012 8.78538 8.57051 8.85344 8.64092 8.93992C10.2449 10.9146 12.5418 12.203 15.0631 12.5424C15.0412 11.7176 15.2493 10.9029 15.664 10.1896C16.0788 9.47635 16.6839 8.89255 17.4116 8.50359C17.7801 8.30742 18.2678 8.15067 18.7701 8.06451ZM8.43008 14.9835C8.60809 15.4845 8.91311 15.9307 9.3153 16.2784C9.71749 16.6261 10.2031 16.8634 10.7245 16.9672C10.8747 16.9971 11.0107 17.0764 11.1107 17.1923C11.2108 17.3083 11.2693 17.4544 11.2768 17.6074C11.2844 17.7604 11.2407 17.9115 11.1526 18.0369C11.0645 18.1622 10.937 18.2545 10.7905 18.2991C10.5406 18.3749 10.2857 18.4277 10.026 18.4577C10.3077 18.8209 10.6672 19.1164 11.078 19.3226C11.4888 19.5288 11.9406 19.6405 12.4002 19.6493C12.5419 19.652 12.6794 19.6985 12.7938 19.7823C12.9081 19.8662 12.9937 19.9833 13.0389 20.1177C13.0841 20.2521 13.0866 20.3972 13.0461 20.5331C13.0056 20.669 12.924 20.789 12.8127 20.8768C11.8563 21.6281 10.7457 22.1586 9.56033 22.4305C10.5419 22.745 11.5665 22.9043 12.5973 22.9026H12.6055C13.9255 22.9164 15.2351 22.667 16.4576 22.1691C17.6802 21.6711 18.7913 20.9345 19.726 20.0024C20.6607 19.0702 21.4004 17.9611 21.9017 16.7399C22.403 15.5187 22.6559 14.2099 22.6458 12.8898V12.3994C22.6456 12.2325 22.7062 12.0712 22.8163 11.9457C22.8804 11.8733 22.9904 11.7064 23.1462 11.4323C23.2929 11.1738 23.4561 10.8622 23.6257 10.5331L23.6559 10.4726C23.1771 10.5802 22.684 10.6102 22.1957 10.5615C22.0305 10.5435 21.8775 10.4663 21.7648 10.3443C21.3038 9.84438 20.69 9.51165 20.0195 9.39826C19.6814 9.35009 19.3376 9.35784 19.002 9.42117C18.6748 9.47203 18.3571 9.57185 18.0597 9.71726C17.4599 10.0377 16.9834 10.5482 16.705 11.1687C16.4266 11.7892 16.3621 12.4845 16.5215 13.1456C16.5466 13.2495 16.5471 13.3579 16.5229 13.4621C16.4988 13.5663 16.4507 13.6634 16.3824 13.7457C16.3142 13.828 16.2276 13.8933 16.1297 13.9363C16.0318 13.9793 15.9252 13.9989 15.8184 13.9935C13.0022 13.8502 10.3399 12.6652 8.3485 10.6688C8.30976 10.8672 8.29042 11.0689 8.29075 11.271V11.2728C8.28972 11.7777 8.41355 12.275 8.65121 12.7204C8.88887 13.1658 9.23299 13.5455 9.65292 13.8258C9.77623 13.9088 9.86933 14.0295 9.91825 14.1699C9.96717 14.3102 9.96927 14.4627 9.92425 14.6043C9.87924 14.746 9.78952 14.8692 9.66854 14.9556C9.54757 15.042 9.40186 15.0868 9.25325 15.0834C8.97669 15.0747 8.70148 15.041 8.431 14.9826" fill="#96C9F0"/>
</svg>
