<svg width="60" height="58" viewBox="0 0 60 58" fill="none" xmlns="http://www.w3.org/2000/svg">
<rect width="60" height="58" rx="15" fill="#0C5290"/>
<path d="M24.9999 33.8617V34.8333C24.9999 36.8225 25.7901 38.7301 27.1966 40.1366C28.6031 41.5432 30.5108 42.3333 32.4999 42.3333C34.489 42.3333 36.3967 41.5432 37.8032 40.1366C39.2097 38.7301 39.9999 36.8225 39.9999 34.8333V32.05C38.8874 31.6568 37.9498 30.883 37.3527 29.8653C36.7555 28.8476 36.5374 27.6516 36.7369 26.4887C36.9364 25.3257 37.5405 24.2708 38.4426 23.5102C39.3447 22.7497 40.4867 22.3325 41.6666 22.3325C42.8465 22.3325 43.9884 22.7497 44.8905 23.5102C45.7926 24.2708 46.3968 25.3257 46.5963 26.4887C46.7957 27.6516 46.5776 28.8476 45.9805 29.8653C45.3834 30.883 44.4457 31.6568 43.3333 32.05V34.8333C43.3333 37.7065 42.1919 40.462 40.1602 42.4937C38.1286 44.5253 35.3731 45.6667 32.4999 45.6667C29.6267 45.6667 26.8712 44.5253 24.8396 42.4937C22.808 40.462 21.6666 37.7065 21.6666 34.8333V33.8617C19.3362 33.4678 17.2206 32.2612 15.6951 30.4559C14.1697 28.6507 13.3329 26.3635 13.3333 24V15.6667C13.3333 14.7826 13.6844 13.9348 14.3096 13.3096C14.9347 12.6845 15.7825 12.3333 16.6666 12.3333H18.3333C18.7753 12.3333 19.1992 12.5089 19.5118 12.8215C19.8243 13.134 19.9999 13.558 19.9999 14C19.9999 14.442 19.8243 14.8659 19.5118 15.1785C19.1992 15.4911 18.7753 15.6667 18.3333 15.6667H16.6666V24C16.6666 25.7681 17.369 27.4638 18.6192 28.714C19.8694 29.9643 21.5651 30.6667 23.3333 30.6667C25.1014 30.6667 26.7971 29.9643 28.0473 28.714C29.2975 27.4638 29.9999 25.7681 29.9999 24V15.6667H28.3333C27.8912 15.6667 27.4673 15.4911 27.1547 15.1785C26.8422 14.8659 26.6666 14.442 26.6666 14C26.6666 13.558 26.8422 13.134 27.1547 12.8215C27.4673 12.5089 27.8912 12.3333 28.3333 12.3333H29.9999C30.884 12.3333 31.7318 12.6845 32.3569 13.3096C32.9821 13.9348 33.3333 14.7826 33.3333 15.6667V24C33.3336 26.3635 32.4968 28.6507 30.9714 30.4559C29.4459 32.2612 27.3303 33.4678 24.9999 33.8617ZM41.6666 29C42.1086 29 42.5325 28.8244 42.8451 28.5118C43.1577 28.1993 43.3333 27.7754 43.3333 27.3333C43.3333 26.8913 43.1577 26.4674 42.8451 26.1548C42.5325 25.8423 42.1086 25.6667 41.6666 25.6667C41.2246 25.6667 40.8006 25.8423 40.4881 26.1548C40.1755 26.4674 39.9999 26.8913 39.9999 27.3333C39.9999 27.7754 40.1755 28.1993 40.4881 28.5118C40.8006 28.8244 41.2246 29 41.6666 29Z" fill="white"/>
</svg>
