<svg width="60" height="58" viewBox="0 0 60 58" fill="none" xmlns="http://www.w3.org/2000/svg">
<rect width="60" height="58" rx="15" fill="#23669C"/>
<path d="M25 33.8616V34.8333C25 36.8224 25.7902 38.73 27.1967 40.1366C28.6033 41.5431 30.5109 42.3333 32.5 42.3333C34.4892 42.3333 36.3968 41.5431 37.8033 40.1366C39.2099 38.73 40 36.8224 40 34.8333V32.0499C38.8876 31.6567 37.9499 30.8829 37.3528 29.8652C36.7557 28.8476 36.5376 27.6515 36.737 26.4886C36.9365 25.3257 37.5407 24.2707 38.4428 23.5101C39.3449 22.7496 40.4868 22.3324 41.6667 22.3324C42.8466 22.3324 43.9886 22.7496 44.8907 23.5101C45.7928 24.2707 46.3969 25.3257 46.5964 26.4886C46.7959 27.6515 46.5778 28.8476 45.9806 29.8652C45.3835 30.8829 44.4459 31.6567 43.3334 32.0499V34.8333C43.3334 37.7064 42.192 40.4619 40.1604 42.4936C38.1287 44.5252 35.3732 45.6666 32.5 45.6666C29.6269 45.6666 26.8714 44.5252 24.8397 42.4936C22.8081 40.4619 21.6667 37.7064 21.6667 34.8333V33.8616C19.3363 33.4677 17.2207 32.2611 15.6953 30.4558C14.1698 28.6506 13.333 26.3634 13.3334 23.9999V15.6666C13.3334 14.7825 13.6846 13.9347 14.3097 13.3096C14.9348 12.6844 15.7827 12.3333 16.6667 12.3333H18.3334C18.7754 12.3333 19.1993 12.5088 19.5119 12.8214C19.8244 13.134 20 13.5579 20 13.9999C20 14.4419 19.8244 14.8659 19.5119 15.1784C19.1993 15.491 18.7754 15.6666 18.3334 15.6666H16.6667V23.9999C16.6667 25.768 17.3691 27.4637 18.6193 28.714C19.8696 29.9642 21.5653 30.6666 23.3334 30.6666C25.1015 30.6666 26.7972 29.9642 28.0474 28.714C29.2977 27.4637 30 25.768 30 23.9999V15.6666H28.3334C27.8913 15.6666 27.4674 15.491 27.1549 15.1784C26.8423 14.8659 26.6667 14.4419 26.6667 13.9999C26.6667 13.5579 26.8423 13.134 27.1549 12.8214C27.4674 12.5088 27.8913 12.3333 28.3334 12.3333H30C30.8841 12.3333 31.7319 12.6844 32.3571 13.3096C32.9822 13.9347 33.3334 14.7825 33.3334 15.6666V23.9999C33.3337 26.3634 32.497 28.6506 30.9715 30.4558C29.446 32.2611 27.3305 33.4677 25 33.8616ZM41.6667 28.9999C42.1087 28.9999 42.5327 28.8243 42.8452 28.5118C43.1578 28.1992 43.3334 27.7753 43.3334 27.3333C43.3334 26.8912 43.1578 26.4673 42.8452 26.1547C42.5327 25.8422 42.1087 25.6666 41.6667 25.6666C41.2247 25.6666 40.8008 25.8422 40.4882 26.1547C40.1756 26.4673 40 26.8912 40 27.3333C40 27.7753 40.1756 28.1992 40.4882 28.5118C40.8008 28.8243 41.2247 28.9999 41.6667 28.9999Z" fill="white"/>
</svg>
