<svg width="32" height="32" viewBox="0 0 32 32" fill="none" xmlns="http://www.w3.org/2000/svg">
<rect width="32" height="32" rx="16" fill="#27679A"/>
<path d="M15.9999 19.6666C16.9724 19.6666 17.905 19.2803 18.5926 18.5926C19.2803 17.905 19.6666 16.9724 19.6666 15.9999C19.6666 15.0275 19.2803 14.0948 18.5926 13.4072C17.905 12.7196 16.9724 12.3333 15.9999 12.3333C15.0275 12.3333 14.0948 12.7196 13.4072 13.4072C12.7196 14.0948 12.3333 15.0275 12.3333 15.9999C12.3333 16.9724 12.7196 17.905 13.4072 18.5926C14.0948 19.2803 15.0275 19.6666 15.9999 19.6666Z" stroke="#96C9F0" stroke-width="1.5" stroke-linecap="round" stroke-linejoin="round"/>
<path d="M7.75 19.6667V12.3333C7.75 11.1178 8.23289 9.95197 9.09243 9.09243C9.95197 8.23289 11.1178 7.75 12.3333 7.75H19.6667C20.8822 7.75 22.048 8.23289 22.9076 9.09243C23.7671 9.95197 24.25 11.1178 24.25 12.3333V19.6667C24.25 20.8822 23.7671 22.048 22.9076 22.9076C22.048 23.7671 20.8822 24.25 19.6667 24.25H12.3333C11.1178 24.25 9.95197 23.7671 9.09243 22.9076C8.23289 22.048 7.75 20.8822 7.75 19.6667Z" stroke="#96C9F0" stroke-width="1.5"/>
<path d="M21.0417 10.9672L21.0505 10.9575" stroke="#96C9F0" stroke-width="1.5" stroke-linecap="round" stroke-linejoin="round"/>
</svg>
