<svg width="25" height="25" viewBox="0 0 25 25" fill="none" xmlns="http://www.w3.org/2000/svg">
<path d="M14.4083 17.2583C14.6234 17.3571 14.8658 17.3796 15.0954 17.3223C15.3251 17.2649 15.5284 17.131 15.6718 16.9426L16.0416 16.4583C16.2356 16.1995 16.4873 15.9895 16.7766 15.8449C17.0658 15.7002 17.3848 15.6249 17.7083 15.6249H20.8333C21.3858 15.6249 21.9157 15.8444 22.3064 16.2351C22.6971 16.6258 22.9166 17.1557 22.9166 17.7083V20.8333C22.9166 21.3858 22.6971 21.9157 22.3064 22.3064C21.9157 22.6971 21.3858 22.9166 20.8333 22.9166C15.8604 22.9166 11.0913 20.9411 7.575 17.4248C4.05869 13.9085 2.08325 9.13939 2.08325 4.16659C2.08325 3.61405 2.30275 3.08415 2.69345 2.69345C3.08415 2.30275 3.61405 2.08325 4.16659 2.08325H7.29159C7.84412 2.08325 8.37402 2.30275 8.76472 2.69345C9.15543 3.08415 9.37492 3.61405 9.37492 4.16659V7.29159C9.37492 7.61501 9.29962 7.934 9.15498 8.22328C9.01033 8.51256 8.80033 8.7642 8.54159 8.95825L8.05409 9.32388C7.86285 9.4699 7.72806 9.67761 7.67262 9.91174C7.61717 10.1459 7.64448 10.392 7.74992 10.6083C9.17355 13.4998 11.5149 15.8383 14.4083 17.2583Z" stroke="#96C9F0" stroke-width="2" stroke-linecap="round" stroke-linejoin="round"/>
</svg>
