<svg width="25" height="25" viewBox="0 0 25 25" fill="none" xmlns="http://www.w3.org/2000/svg">
<path d="M4.16659 20.8334C3.59367 20.8334 3.10339 20.6296 2.69575 20.222C2.28811 19.8143 2.08395 19.3237 2.08325 18.7501V6.25008C2.08325 5.67716 2.28742 5.18689 2.69575 4.77925C3.10409 4.37161 3.59436 4.16744 4.16659 4.16675H20.8333C21.4062 4.16675 21.8968 4.37091 22.3051 4.77925C22.7135 5.18758 22.9173 5.67786 22.9166 6.25008V18.7501C22.9166 19.323 22.7128 19.8136 22.3051 20.222C21.8975 20.6303 21.4069 20.8341 20.8333 20.8334H4.16659ZM20.8333 8.33341L13.0468 13.2032C12.96 13.2553 12.869 13.2945 12.7739 13.3209C12.6787 13.3473 12.5874 13.3602 12.4999 13.3595C12.4124 13.3588 12.3214 13.3459 12.227 13.3209C12.1326 13.2959 12.0412 13.2567 11.953 13.2032L4.16659 8.33341V18.7501H20.8333V8.33341ZM12.4999 11.4584L20.8333 6.25008H4.16659L12.4999 11.4584ZM4.16659 8.59383V7.05737V7.08341V7.07091V8.59383Z" fill="#96C9F0"/>
</svg>
