<svg width="25" height="25" viewBox="0 0 25 25" fill="none" xmlns="http://www.w3.org/2000/svg">
<path d="M12.5001 2.08325C7.91675 2.08325 4.16675 5.83325 4.16675 10.4166C4.16675 16.0416 11.4584 22.3958 11.7709 22.7083C11.9792 22.8124 12.2917 22.9166 12.5001 22.9166C12.7084 22.9166 13.0209 22.8124 13.2292 22.7083C13.5417 22.3958 20.8334 16.0416 20.8334 10.4166C20.8334 5.83325 17.0834 2.08325 12.5001 2.08325ZM12.5001 20.5208C10.3126 18.4374 6.25008 13.9583 6.25008 10.4166C6.25008 6.97909 9.06258 4.16659 12.5001 4.16659C15.9376 4.16659 18.7501 6.97909 18.7501 10.4166C18.7501 13.8541 14.6876 18.4374 12.5001 20.5208ZM12.5001 6.24992C10.2084 6.24992 8.33341 8.12492 8.33341 10.4166C8.33341 12.7083 10.2084 14.5833 12.5001 14.5833C14.7917 14.5833 16.6667 12.7083 16.6667 10.4166C16.6667 8.12492 14.7917 6.24992 12.5001 6.24992ZM12.5001 12.4999C11.3542 12.4999 10.4167 11.5624 10.4167 10.4166C10.4167 9.27075 11.3542 8.33325 12.5001 8.33325C13.6459 8.33325 14.5834 9.27075 14.5834 10.4166C14.5834 11.5624 13.6459 12.4999 12.5001 12.4999Z" fill="#96C9F0"/>
</svg>
